<svg width="24" height="24" viewBox="0 0 24 24" fill="none" xmlns="http://www.w3.org/2000/svg">
<path d="M18 5.96129C18 7.5969 16.6741 8.92283 15.0385 8.92283H12V2.99976H15.0385C16.6741 2.99976 18 4.32568 18 5.96129Z" stroke="white" stroke-width="1.5"/>
<path d="M6 5.96153C6 7.59715 7.32592 8.92307 8.96154 8.92307H12V3H8.96154C7.32592 3 6 4.32592 6 5.96153Z" stroke="white" stroke-width="1.5"/>
<path d="M6 11.8845C6 13.5201 7.32592 14.846 8.96154 14.846H12V8.92297H8.96154C7.32592 8.92297 6 10.2489 6 11.8845Z" stroke="white" stroke-width="1.5"/>
<path d="M6 17.8075C6 19.4431 7.34503 20.769 8.98065 20.769C10.6375 20.769 12 19.4259 12 17.769V14.8459H8.96154C7.32592 14.8459 6 16.1719 6 17.8075Z" stroke="white" stroke-width="1.5"/>
<path d="M12 11.8845C12 13.5201 13.3259 14.846 14.9615 14.846H15.0385C16.6741 14.846 18 13.5201 18 11.8845C18 10.2489 16.6741 8.92297 15.0385 8.92297H14.9615C13.3259 8.92297 12 10.2489 12 11.8845Z" stroke="white" stroke-width="1.5"/>
</svg>
