<svg width="24" height="24" viewBox="0 0 24 24" fill="none" xmlns="http://www.w3.org/2000/svg">
<mask id="path-1-inside-1_68703_350240" fill="white">
<path d="M13.8998 11.1983L20.0923 4H18.6249L13.2479 10.2502L8.95329 4H4L10.4943 13.4514L4 21H5.46752L11.1458 14.3996L15.6811 21H20.6344L13.8994 11.1983H13.8998ZM11.8898 13.5347L11.2318 12.5936L5.99629 5.10473H8.25031L12.4754 11.1485L13.1334 12.0896L18.6256 19.9455H16.3715L11.8898 13.5351V13.5347Z"/>
</mask>
<path d="M13.8998 11.1983L20.0923 4H18.6249L13.2479 10.2502L8.95329 4H4L10.4943 13.4514L4 21H5.46752L11.1458 14.3996L15.6811 21H20.6344L13.8994 11.1983H13.8998ZM11.8898 13.5347L11.2318 12.5936L5.99629 5.10473H8.25031L12.4754 11.1485L13.1334 12.0896L18.6256 19.9455H16.3715L11.8898 13.5351V13.5347Z" fill="black"/>
<path d="M13.8998 11.1983V12.6983H14.588L15.0369 12.1766L13.8998 11.1983ZM20.0923 4L21.2294 4.97824L23.3614 2.5H20.0923V4ZM18.6249 4V2.5H17.9366L17.4877 3.02175L18.6249 4ZM13.2479 10.2502L12.0116 11.0997L13.1147 12.7051L14.385 11.2285L13.2479 10.2502ZM8.95329 4L10.1896 3.15053L9.74259 2.5H8.95329V4ZM4 4V2.5H1.14935L2.76372 4.84947L4 4ZM10.4943 13.4514L11.6313 14.4297L12.3847 13.554L11.7305 12.602L10.4943 13.4514ZM4 21L2.86291 20.0217L0.730775 22.5H4V21ZM5.46752 21V22.5H6.15578L6.60464 21.9782L5.46752 21ZM11.1458 14.3996L12.382 13.5501L11.2789 11.9447L10.0086 13.4213L11.1458 14.3996ZM15.6811 21L14.4449 21.8495L14.8919 22.5H15.6811V21ZM20.6344 21V22.5H23.4851L21.8707 20.1505L20.6344 21ZM13.8994 11.1983V9.69834H11.0487L12.6631 12.0478L13.8994 11.1983ZM11.8898 13.5347H13.3898V13.0623L13.1191 12.6752L11.8898 13.5347ZM11.2318 12.5936L10.0024 13.453L10.0024 13.453L11.2318 12.5936ZM5.99629 5.10473V3.60473H3.11741L4.76692 5.96418L5.99629 5.10473ZM8.25031 5.10473L9.47968 4.24529L9.03187 3.60473H8.25031V5.10473ZM12.4754 11.1485L11.246 12.0079L11.2461 12.0079L12.4754 11.1485ZM13.1334 12.0896L14.3628 11.2301L14.3628 11.2301L13.1334 12.0896ZM18.6256 19.9455V21.4455H21.5044L19.8549 19.0861L18.6256 19.9455ZM16.3715 19.9455L15.1422 20.805L15.59 21.4455H16.3715V19.9455ZM11.8898 13.5351H10.3898V14.0074L10.6604 14.3945L11.8898 13.5351ZM15.0369 12.1766L21.2294 4.97824L18.9552 3.02176L12.7626 10.2201L15.0369 12.1766ZM20.0923 2.5H18.6249V5.5H20.0923V2.5ZM17.4877 3.02175L12.1108 9.27197L14.385 11.2285L19.762 4.97825L17.4877 3.02175ZM14.4842 9.40075L10.1896 3.15053L7.717 4.84947L12.0116 11.0997L14.4842 9.40075ZM8.95329 2.5H4V5.5H8.95329V2.5ZM2.76372 4.84947L9.25797 14.3009L11.7305 12.602L5.23628 3.15053L2.76372 4.84947ZM9.35716 12.4732L2.86291 20.0217L5.13709 21.9783L11.6313 14.4297L9.35716 12.4732ZM4 22.5H5.46752V19.5H4V22.5ZM6.60464 21.9782L12.2829 15.3778L10.0086 13.4213L4.3304 20.0218L6.60464 21.9782ZM9.90948 15.249L14.4449 21.8495L16.9174 20.1505L12.382 13.5501L9.90948 15.249ZM15.6811 22.5H20.6344V19.5H15.6811V22.5ZM21.8707 20.1505L15.1357 10.3489L12.6631 12.0478L19.3982 21.8495L21.8707 20.1505ZM13.8994 12.6983H13.8998V9.69834H13.8994V12.6983ZM13.1191 12.6752L12.4611 11.7341L10.0024 13.453L10.6604 14.3942L13.1191 12.6752ZM12.4611 11.7341L7.22565 4.24527L4.76692 5.96418L10.0024 13.453L12.4611 11.7341ZM5.99629 6.60473H8.25031V3.60473H5.99629V6.60473ZM7.02093 5.96417L11.246 12.0079L13.7048 10.289L9.47968 4.24529L7.02093 5.96417ZM11.2461 12.0079L11.9041 12.9491L14.3628 11.2301L13.7048 10.289L11.2461 12.0079ZM11.9041 12.9491L17.3962 20.805L19.8549 19.0861L14.3628 11.2301L11.9041 12.9491ZM18.6256 18.4455H16.3715V21.4455H18.6256V18.4455ZM17.6009 19.086L13.1191 12.6756L10.6604 14.3945L15.1422 20.805L17.6009 19.086ZM13.3898 13.5351V13.5347H10.3898V13.5351H13.3898Z" fill="black" mask="url(#path-1-inside-1_68703_350240)"/>
</svg>
